<svg xmlns="http://www.w3.org/2000/svg" style="display:block" viewBox="213 212.776 598 608.978"><path d="M0 0h263c0 124.247 0 124.247-19.062 145.813-9.493 8.78-21.524 11.646-34.086 11.527-15.73-1.388-30.192-10.183-41.852-20.34l-2.488-2.086C158.058 128.492 151.466 121.2 146 113c.132-2.033.132-2.033 1-4 1.702-1.324 1.702-1.324 3.895-2.473l2.396-1.287 2.522-1.302q2.449-1.296 4.894-2.598l2.202-1.145c2.164-1.174 2.164-1.174 4.234-2.841C169 96 169 96 171 96v-2l-2.387-.695C135.524 81.357 108.192 55.788 89 27c-9.198 30.339-5.361 67.868 4.286 97.534 1.125 3.468 2.092 6.872 2.714 10.466 3.773-2.079 7.344-4.192 10.813-6.75C110 126 110 126 112 126l1.25 3.008c20.553 48.676 58.114 76.458 105.422 96.86 18.911 8.22 36.522 17.791 52.328 31.132l2.492 2.082C282.88 267.197 291.5 276.776 297 288v2h2l.754-2.121C306.74 271.739 321.047 259.068 335 249l1.78-1.289c15.34-10.957 32.063-18.722 49.283-26.211 23.78-10.357 44.225-22.32 62.937-40.5l1.688-1.619c4.117-4.015 7.753-8.208 11.187-12.818l1.553-2.081c8.66-11.85 15.177-24.861 20.572-38.482 3.723.623 6.1 2.297 9.125 4.5 3.32 2.445 3.32 2.445 6.875 4.5l.688-3.5c.815-3.732 1.884-7.319 3.09-10.943 5.332-16.118 7.422-32.922 7.41-49.87v-3.139c-.07-9.521-.874-18.898-1.944-28.353-.333-2.999-.604-6.002-.869-9.007l-.227-2.52L508 26h-2c-.39 1.085-.39 1.085-.79 2.191-11.413 26.473-41.155 46.94-65.647 59.622l-1.825.947C427.588 94 427.588 94 424 94v2l2.182.824c2.778 1.16 5.294 2.493 7.9 3.996l2.822 1.621 2.909 1.684 2.966 1.707q3.613 2.08 7.221 4.168c-3.253 14.59-21.715 27.94-33.437 35.75-5.602 3.447-11.402 5.977-17.563 8.25l-2.453.973c-10.047 3.576-21.233 3.453-31.055-.715C351.81 147.352 344.58 136.98 339 123c-11.914-37.706-6-88.229-6-123h263c0 19.978 0 19.978-.687 26.313l-.257 2.432C592.992 46.79 589.818 64.776 584 82l-.855 2.617C578.607 98.493 573.388 111.872 567 125l-1.245 2.569c-11.504 23.461-26.346 45.797-44.306 64.833a174 174 0 0 0-5.949 6.66c-6.868 7.906-14.461 15.235-22.5 21.938l-1.562 1.333C480.25 231.863 468.403 240.13 456 248l-2.19 1.394C432.624 262.732 409.73 272.221 386 280l-3.273 1.076c-7.379 2.353-14.746 4.108-22.352 5.549l-3.156.617c-3.071.598-6.145 1.18-9.219 1.758l-2.855.553c-74.84 14.2-153.455-6.41-215.848-48.458A292 292 0 0 1 108 225c-.54-.44-1.082-.878-1.639-1.331C91.603 211.666 77.507 198.176 66 183a2261 2261 0 0 0-3.031-3.844C51.579 164.64 41.59 149.331 33 133l-1.362-2.557C24.645 117.16 19.215 103.658 14.5 89.437l-.756-2.272C8.748 72.04 4.857 57.085 2.813 41.25a5090 5090 0 0 0-.981-7.297l-.415-3.182C1.011 27.773 1.011 27.773 0 24z" style="fill:#7faedc" transform="translate(214 518)"/><path d="m0 0 2.28.003C30.922.08 59.444 3.419 86.813 12.188l3.076.954c26.408 8.267 51.916 19.542 74.924 35.046l2.175 1.455c9.8 6.607 18.96 13.738 27.825 21.545l2.156 1.855c11.254 9.709 22.148 19.607 31.469 31.21 2.346 2.9 4.762 5.727 7.187 8.56 28.067 33.818 48.822 75.897 57.682 118.95a327 327 0 0 0 1.584 7.108c2.297 10.233 3.625 20.514 4.671 30.941l.388 3.846c.652 6.937.863 13.507.863 20.53h-207c2.325-2.326 4.141-3.798 6.812-5.563 9.196-6.914 11.395-16.527 13.188-27.437l2.421 1.207c13.898 6.704 25.383 8.248 40.579 7.793l4-15c2.53 1.012 5.063 2.03 7.515 3.218 8.686 4.07 17.045 5.032 26.484 5.781a879 879 0 0 0 4-21c2.763.523 5.327 1.11 8 2 8.78 1.19 15.812-.833 23-6 6.224-7.063 7.461-12.975 7.274-22.222-.487-6.733-2.729-10.596-7.649-15.09-7.285-5.632-13.56-6.297-22.625-6.687l1.102-1.399c10.622-13.33 10.622-13.33 14.762-29.207-1.695-4.702-6.595-6.301-10.863-8.394-15.075-6.501-28.09-7.896-44-3l-.297-3.149c-1.668-16.148-7.138-28.174-18.703-39.851-2.736-2.266-2.736-2.266-5.407-1.829-9.856 3.147-19.078 14.113-23.77 23.075l-.823 1.754c-1.938-.75-1.938-.75-4-2-.782-1.848-.782-1.848-1-4 .996-1.762.996-1.762 2.437-3.688 4.003-6.772 3.668-14.71 2.563-22.312-2.292-8.037-7.055-13.21-14.215-17.25-9.974-4.656-19.327-3.075-29.785-.75l-2-26c-15.377.427-28.823 1.646-43 8 1.875-5.75 1.875-5.75 3-8 .854-11.213-.006-20.258-7.126-29.313C19.39 21.141 10.92 18.058 1.875 17.75c-8.718-.068-15.594 2.504-22.219 8.336-1.812 1.942-3.337 3.916-4.843 6.102l-1.31 1.69c-4.24 6.56-3.534 15.799-2.69 23.31.542 2.399 1.23 4.658 2 7l-1.766-.551c-2.738-.84-5.486-1.644-8.234-2.45l-2.633-.832c-9.634-2.785-19.409-2.882-29.367-3.167-.912 5.643-1.298 11.23-1.563 16.937l-.13 2.65q-.158 3.207-.308 6.412l-1.742-.424c-10.6-2.485-20.507-3.078-30.257 2.424-7.14 4.471-10.393 11.177-13 19-.855 7.91.133 13.574 4.003 20.528 1.187 2.946.892 4.475-.004 7.472l-3 1-1.136-1.976-1.551-2.649-1.512-2.601c-3.967-6.11-8.153-10.085-14.113-14.148l-1.955-1.364a733 733 0 0 0-4.732-3.261c-10.913 8.866-18.514 18.54-23 32-.226 2.392-.409 4.789-.563 7.187l-.254 3.855-.184 2.958-2.386-.657c-17.867-4.567-31.688-2.02-47.461 6.914-3.153 1.743-3.153 1.743-6.153 2.743 1.268 5.765 3.02 10.743 5.688 16l1.057 2.107c2.465 4.757 5.227 8.77 9.006 12.607 1.25 1.286 1.25 1.286 1.25 2.286l-2.528.042c-9.066.385-16.03 1.93-22.347 8.77-4.933 7.399-6.203 14.295-5.125 23.188 2.159 7.046 7.168 12.751 13.648 16.277 7.905 2.43 16.63 1.21 24.351-1.278l.368 2.528c.977 6.564 2.1 13.016 3.632 19.472 12.528-.768 22.646-3.685 34-9a852 852 0 0 1 1.5 5.25l.844 2.954c.656 2.796.656 2.796.656 6.796 16.223-.253 29.253-1.836 44-9l.227 2.239c1.42 10.954 5.13 19.325 13.844 26.324l1.93 1.438 4 3h-207c0-46.801 11.9-92.747 34-134l1.187-2.226c5.14-9.578 10.48-18.924 16.813-27.774l1.563-2.193c12.2-17.024 12.2-17.024 19.276-24.507 1.856-1.976 3.629-3.99 5.399-6.043 9.602-11.012 20.15-21.386 31.762-30.257l3.851-3.04C-150.079 38.066-111.546 18.5-70.345 8.71a260 260 0 0 0 6.228-1.604c11.545-3.017 23.244-4.382 35.098-5.619q2.622-.274 5.24-.595C-15.872-.036-7.95-.013 0 0" style="fill:#b7d88a" transform="translate(510.188 212.813)"/><path d="M0 0h2l6 84 1.62-2.045 2.15-2.701 2.12-2.67C24.895 63.107 43.36 49.772 61 47l3 1-2.824 1.617C37.88 63.151 19.608 80.036 10.928 106.234c-.965 3.915-1.217 7.524-1.194 11.524l-.008 2.223c-.003 2.382.01 4.763.024 7.144l.005 2.46c.04 15.536.876 30.939 2.245 46.415l1.464-2.105c4.477-6.313 9.15-12.03 14.661-17.458l2.24-2.213C36.78 148.01 43.401 142.681 51 138l2.017-1.251c16.226-9.904 32.96-16.17 51.578-19.819 12.54-2.583 24.02-7.888 34.655-14.996L141 101l2 1a1138 1138 0 0 1-4.187 4.75l-2.356 2.672c-2.342 2.457-4.759 4.527-7.457 6.578l1.87.256c18.368 2.592 35.262 6.975 52.13 14.744-3.377 1.124-5.632.854-9.07.04-.98-.225-1.96-.45-2.97-.68l-3.085-.735c-11.552-2.724-22.385-3.805-34.25-3.812l-3.172-.038c-10.608-.02-20.61 1.61-30.703 4.85l-2.44.78C79.047 137.48 61.21 147.91 48 162l9 1c-2.938 2.938-4.92 4.045-8.625 5.75-13.052 6.463-20.297 14.945-25.687 28.625-4.38 13.89-5.127 26.92-5.051 41.371q0 2.976-.002 5.951 0 6.212.029 12.423c.022 5.234.023 10.468.017 15.703-.318 37.354-.318 37.354 4.569 74.302l.657 3.147c3.477 15.812 10.157 30.535 23.69 40.263 13.604 8.295 28.307 9.74 43.778 6.09C123.3 386.478 152.189 363.098 169 333v-2l-1.545-.687a1053 1053 0 0 1-6.893-3.125l-2.431-1.08-2.315-1.065-2.142-.968C152 323 152 323 151 320l3.008-1.398c17.136-8.147 32.752-19.228 44.863-34.024L201 282h1c1.274 20.425-3.808 41.385-12 60l-6-2-.746 2.555c-1.383 3.8-3.218 7.134-5.316 10.57l-1.204 1.981C170.491 365.226 163.193 374.385 155 383l-1.453 1.536C141.687 396.99 128.96 406.566 114 415l-1.838 1.056c-9.652 5.512-19.697 9.968-29.912 14.319-31.784 13.556-65.156 30.808-79.477 64.512L2 497H0l-1.145-2.57c-3.204-6.83-6.664-12.943-11.355-18.868l-1.327-1.678c-18.363-22.529-45.053-33.98-71.028-45.453-20.808-9.193-39.701-19.722-57.145-34.431l-2.137-1.766c-4.072-3.443-7.655-7.085-11.093-11.16a112 112 0 0 0-3.633-4.054C-166.251 369.128-182 351.39-182 340l-6 2c-3.991-8.785-6.826-17.607-9-27l-.462-1.954c-2.406-10.43-2.895-20.365-2.538-31.046 3.374 2.73 6.42 5.28 9.125 8.688C-179.693 303.705-164.388 312.813-149 320v2l-18 9c2.343 9.372 10.402 17.798 16.89 24.734 1.913 2.054 3.698 4.167 5.485 6.329C-128.573 380.45-103.095 394.679-79 398c15.1 1.02 27.788-1.807 39.75-11.562 11.243-10.714 16.478-25.508 19.438-40.375l.47-2.323c3.207-17.568 3.665-35.484 3.678-53.29l.02-6.241q.017-6.476.015-12.95c0-5.485.027-10.968.061-16.452.023-4.28.026-8.56.025-12.841q.004-3.031.027-6.062C-15.37 215.256-18.27 194.489-32 178c-6.506-6.538-15.79-10.075-24-14v-2l10-1c-24.354-21.366-54.145-35.487-87.062-35.312l-3.275.01c-13.406.18-26.254 2.447-39.194 5.849C-178 132-178 132-181 131c17.44-8.032 34.907-12.85 54-15l-2.047-1.828-2.703-2.422-2.672-2.39c-4.675-4.279-4.675-4.279-6.578-6.36v-2c3.608 1.35 6.997 2.99 10.414 4.766 10.59 5.477 21.188 9.424 32.747 12.307 28.743 7.174 52.619 19.686 73.777 40.49l1.826 1.783c4.733 4.785 8.51 10.061 12.236 15.654 1.61-26.295 1.61-26.295 2.313-52.625l.052-3.001c-.007-10.448-2.481-19.881-7.552-28.999l-1.198-2.197C-19.687 83.265-23.419 78-28 73l-1.973-2.25C-36.395 63.836-44.07 58.989-52 54l-2.742-1.742A486 486 0 0 0-60 49c4.095-1.725 7.471-.13 11.375 1.375l2.14.822C-30.035 57.817-17.286 69.557-6 83c1.009-6.141 1.363-12.258 1.684-18.469l.373-6.863q.285-5.337.565-10.673C-2.545 31.297-1.484 15.65 0 0" style="fill:#7faedc" transform="translate(511 293)"/><path d="M0 0c14.475-.756 28.02 3.368 39 13 5.386 5.631 10.158 12.986 10.098 21.012l-.01 2.295-.026 2.38-.013 2.417Q49.029 44.05 49 47c-4.796-2.996-8.79-6.415-12.875-10.312l-3.687-3.47-1.782-1.675C27.51 28.613 24.27 25.792 21 23c2.664 3.593 5.422 7.11 8.188 10.625l1.462 1.864a712 712 0 0 0 10.987 13.62C43 51 43 51 43 53c-12.282.513-21.392-.938-31-9C2.24 33.777-.19 23.37-.062 9.625l.013-2.809Q-.03 3.408 0 0" style="fill:#b7d88a" transform="translate(450 281)"/><path d="M0 0c.526 14.661 1.002 28.32-9.156 40.07L-11 42l-1.656 1.742c-6.927 6.568-16.233 9.446-25.656 9.32l-2.676-.027L-43 53c1.361-2.931 2.927-5.349 4.938-7.875l1.851-2.344L-34 40q2.164-2.74 4.324-5.485 1.47-1.866 2.943-3.73C-24.724 28.24-22.8 25.7-21 23l-2.895 2.746C-45.345 46-45.345 46-50 46c-.601-11.595.553-20.742 8-30C-30.47 4.09-16.484-.876 0 0" style="fill:#b7d88a" transform="translate(574 281)"/><path d="M0 0c5.568 5.01 9.096 10.683 9.5 18.25-.227 6.965-2.409 12.842-7.543 17.672C-5.398 41.549-11.918 41.934-21 41c-6.55-2.281-10.778-6.076-14.16-12.07-2.455-5.642-2.933-11.672-.969-17.528 3.26-7.085 7.222-11.81 14.504-14.777C-13.543-4.768-7.083-4.548 0 0" style="fill:#b7d88a" transform="translate(484 381)"/><path d="M0 0c4.559 3.156 8.354 6.6 10 12 .82 7.024 1.09 14.102-2.66 20.32-4.033 5.056-8.91 9.23-15.442 10.086C-16.624 42.633-22.449 41.67-29 36c-5.684-6.118-6.428-11.873-6.34-19.96.708-6.33 4.268-10.253 8.84-14.415C-18.576-4.619-8.854-4.751 0 0" style="fill:#b7d88a" transform="translate(566 380)"/><path d="M0 0c5.961 3.497 10.561 8.932 12.688 15.5 1.006 6.896.08 12.671-3.297 18.766-3.327 4.363-7.87 6.818-12.703 9.234-8.04.923-14.154.42-20.903-4.21-4.729-4.034-7.766-8.53-8.406-14.83-.26-7.253-.05-12.306 4.52-18.12C-20.637-1.338-10.219-4.548 0 0" style="fill:#b7d88a" transform="translate(600.313 454.5)"/><path d="M0 0c4.687 3.16 7.998 7.246 10.512 12.273 1.398 7.767 1.12 13.822-2.735 20.856-3.302 4.4-7.86 6.848-12.703 9.27-8.098.93-14.185.39-20.972-4.286-2.705-2.287-4.419-4.564-6.028-7.715l-1.25-2.25c-1.712-6.279-1.434-12.867 1.14-18.867C-25.081-2.519-12.19-6.172 0 0" style="fill:#b7d88a" transform="translate(444.926 455.602)"/><path d="M0 0c5.664 3.285 10.073 6.43 12.125 12.813.712 6.73.94 13.31-2.59 19.28-3.327 4.056-7.445 7.065-12.41 8.72-7.262.695-13.418.92-19.422-3.583-4.73-4.249-7.946-9.188-8.902-15.585-.286-5.735.955-10.167 4.324-14.832C-19.548-.856-10.402-4.095 0 0" style="fill:#b7d88a" transform="translate(520.875 242.188)"/><path d="M0 0c-3.228 6.01-7.096 11.363-11.187 16.813a3988 3988 0 0 0-3.793 5.082l-1.685 2.245C-18.047 25.96-18.047 25.96-19 28l2.08-2.111q3.812-3.864 7.637-7.716 1.655-1.67 3.305-3.346c1.58-1.604 3.165-3.2 4.751-4.796L.267 8.507C1.474 7.299 2.733 6.144 4 5h2c.69 11.214.173 20.31-6.984 29.566-7.718 8.307-17.443 13.085-28.801 13.547-2.41.01-4.808-.023-7.215-.113-2.986-5.971-1.584-17.051.063-23.375 3.272-9.126 9.706-17.205 18.214-21.875C-12.437-.11-6.836-.468 0 0" style="fill:#b7d88a" transform="translate(402 425)"/><path d="M0 0c9.643-.536 18.392 1.91 26 8 6.853 6.405 11.646 14.43 12.092 23.973.042 2.26.044 4.517.033 6.777l.012 2.363c-.01 5.76-.01 5.76-1.137 6.887-13.367.538-24.387-2.525-34.562-11.75C-6.087 26.644-6.69 17.212-6 5 .496 9.509 5.978 14.736 11.5 20.375l2.492 2.52Q17.002 25.94 20 29l-1.132-1.497c-3.842-5.098-7.573-10.263-11.255-15.478C5.707 9.34 3.79 6.745 1.695 4.2 0 2 0 2 0 0" style="fill:#b7d88a" transform="translate(622 425)"/><path d="M0 0c4.64 3.808 7.81 8.402 10.25 13.875v3c-6.39-.561-12.227-1.698-18.375-3.5l-2.402-.684c-3.097-.885-6.167-1.797-9.223-2.816l27 13v3c-9.399 4.377-19.33 6.251-29.379 2.86-10.307-4.902-18.316-11.659-22.66-22.438A109 109 0 0 1-46.75-.125C-31-8.581-15.266-10.745 0 0" style="fill:#b7d88a" transform="translate(348.75 380.125)"/><path d="M0 0c-2.947 10.448-8.7 19.518-17.937 25.313-9.177 5.098-19.142 6.542-29.415 3.789-2.6-.948-5.132-1.952-7.648-3.102v-2c10.15-5.53 20.278-10.667 31-15-6.14 1.437-12.164 2.996-18.125 5.063-5.23 1.8-10.424 3.02-15.875 3.937C-55.277 7.379-48.341.408-39.172-5.098-27.316-10.638-10.517-7.01 0 0" style="fill:#b7d88a" transform="translate(722 380)"/><path d="M0 0c5.697 3.12 8.726 5.968 11.348 11.895l1 2c1.091 7.234-.78 13.092-5 19-4.005 4.04-7.933 5.299-13.563 5.5-5.505-.297-10.01-1.174-14.125-5.118-4.618-5.173-6.738-9.082-6.566-16.074.618-5.618 3.31-10.365 7.254-14.308C-13.456-1.415-7.112-2.964 0 0" style="fill:#b7d88a" transform="translate(430.652 304.105)"/><path d="M0 0c5.411 2.76 8.898 7.706 10.777 13.344.798 6.418.219 11.004-3.57 16.312-3.55 4.19-7.653 7.27-13.129 8.094-6.693.21-11.103-.479-16.453-4.645-4.372-4.168-6.046-7.688-6.285-13.761.3-6.804 2.637-12.062 7.437-17C-15.39-1.993-6.825-2.015 0 0" style="fill:#b7d88a" transform="translate(609.223 304.656)"/><path d="M0 0c10.366 3.753 17.4 11.648 22.375 21.25 3.008 7.344 2.612 14.91-.187 22.25-1.376 3.162-2.924 5.885-5.188 8.5h-2L6 26c.984 7.345.984 7.345 1.975 14.688l.369 2.792.38 2.841C8.99 48.903 9.05 51.407 9 54 .836 50.563-4.308 45.696-8.437 37.813c-3.173-8.027-2.53-16.218.624-24.126C-5.57 8.864-2.968 4.412 0 0" style="fill:#b7d88a" transform="translate(406 350)"/><path d="M0 0q1.98 3.337 3.938 6.688l1.13 1.896C9.888 16.878 9.668 25.628 9 35c-.835 3.149-2.04 5.416-4 8l-1.39 1.887C.511 48.775-2.68 51.545-7 54h-2c.48-10.45 1.313-20.664 3-31l-.503 1.677L-15 53c-6.096-4.911-8.281-11.343-9.457-18.96-.515-9.13 2.669-16.34 8.355-23.395C-5.996 0-5.996 0 0 0" style="fill:#b7d88a" transform="translate(618 350)"/><path d="M0 0c3.195 1.633 4.798 4.347 6.727 7.262l1.195 1.713c5.684 8.381 6.382 17.272 5.18 27.1-2.09 7.422-7.001 13.258-13 18h-2l-1-25-4 24c-4.53-2.266-4.53-2.266-6.625-5.313l-1.227-1.739c-3.113-5.284-3.514-9.75-3.523-15.761l-.075-2.33c-.042-8.44 3.284-14.094 9.012-20.17l2.316-2.489 2.122-2.199 1.527-1.855C-1.898.074-1.898.074 0 0" style="fill:#b7d88a" transform="translate(653.898 332.926)"/><path d="M0 0c8.076 3.58 13.533 11.085 17 19 2.515 7.561 2.247 17.502-1.25 24.625C13.778 46.977 11.711 50.195 9 53H7L3 32 1 54c-6.793-4.529-6.793-4.529-9.25-7.937l-1.453-1.965C-14.177 36.86-14.251 28.248-13 20c2.281-7.845 6.718-14.79 13-20" style="fill:#b7d88a" transform="translate(370 333)"/><path d="M0 0c7.261-.605 11.65 1.897 17.688 5.688 6.377 6.377 8.453 13.46 8.5 22.25l.042 3.652c-.22 3.27-.822 5.478-2.23 8.41-10.617-1.17-18.876-4.726-25.746-13.094-3.387-5.149-4.652-8.953-4.566-15.156l.011-3.703C-6 5-6 5-4 3 1.28 8.802 6.267 14.743 11 21l-1.645-2.816-2.168-3.747-1.08-1.845C3.745 8.496 1.787 4.379 0 0" style="fill:#b7d88a" transform="translate(673 427)"/><path d="M0 0c-.644 3.12-1.722 5.559-3.285 8.328l-1.358 2.422-1.42 2.5-1.431 2.547Q-9.241 18.902-11 22c4.685-5.337 8.892-10.862 13.047-16.621L4 3h2c1.962 6.77 2.293 14.367-.937 20.75-4.298 6.676-10.4 12.441-18.067 14.863-3.386.656-6.557.571-9.996.387-3.184-6.837-3.265-15.318-.75-22.437C-20.305 9.549-16.592 5.155-10 1-6.527-.158-3.64-.069 0 0" style="fill:#b7d88a" transform="translate(350 427)"/><path d="M0 0c4.597 2.412 7.705 5.656 10.012 10.27.81 6.407-.051 11.793-4 17-4.939 4.03-9.09 4.642-15.414 4.382-5.04-.746-7.571-3.314-10.961-6.882-2.4-5.17-2.372-9.897-1.625-15.5 1.999-4.478 4.6-7.057 9.011-9.305C-8.62-1.558-4.339-1.595 0 0" style="fill:#b7d88a" transform="translate(728.988 417.73)"/><path d="M0 0c4.179 2.423 6.618 4.62 8.754 9.047.818 5.474.702 10.428-1.563 15.5-4.499 4.615-8.106 6.711-14.5 7-6.01-.265-9.215-2.639-13.25-7-2.951-4.373-3.212-8.247-2.687-13.5C-21.143 6-18.167 2.08-13.196-.324-8.612-1.803-4.462-1.894 0 0" style="fill:#b7d88a" transform="translate(308.246 417.953)"/><path d="m0 0 2 2a786 786 0 0 1-6.312 1.563l-3.551.878C-11 5-11 5-14 4a496 496 0 0 1 5.313-2.562L-5.7-.004C-3-1-3-1 0 0" style="fill:#7faedc" transform="translate(344 420)"/><path d="M0 0c2.262.46 2.262.46 4.688 1.375l2.449.898L9 3c-4.52 1.456-7.516.27-12-1z" style="fill:#7faedc" transform="translate(685 421)"/></svg>