<?xml version="1.0" standalone="no"?>
<!DOCTYPE svg PUBLIC "-//W3C//DTD SVG 20010904//EN"
 "http://www.w3.org/TR/2001/REC-SVG-20010904/DTD/svg10.dtd">
<svg version="1.0" xmlns="http://www.w3.org/2000/svg"
 width="602.000000pt" height="690.000000pt" viewBox="0 0 602.000000 690.000000"
 preserveAspectRatio="xMidYMid meet">
<metadata>
Created by potrace 1.16, written by Peter Selinger 2001-2019
</metadata>
<g transform="translate(0.000000,690.000000) scale(0.100000,-0.100000)"
fill="#31465c" stroke="none">
<path d="M2645 6862 c-200 -106 -300 -226 -363 -433 -45 -148 -53 -397 -17
-539 22 -83 72 -188 134 -282 51 -76 251 -278 331 -334 l45 -32 77 72 76 71
-116 90 c-298 229 -424 409 -439 625 -7 93 12 174 67 285 39 80 107 181 116
172 2 -2 -5 -25 -16 -51 -33 -78 -69 -214 -80 -304 -6 -47 -9 -86 -7 -88 11
-11 110 57 170 117 149 148 185 324 121 592 -9 37 -19 69 -23 71 -4 3 -38 -12
-76 -32z M3295 6891 c-18 -31 -45 -197 -45 -286 0 -113 15 -179 56 -256 38
-70 145 -177 213 -213 l54 -29 -8 69 c-9 87 -46 232 -79 315 -14 35 -24 65
-21 67 8 8 77 -96 115 -173 94 -192 94 -332 -2 -525 -36 -71 -60 -103 -153
-195 -66 -67 -182 -165 -291 -248 -294 -222 -413 -365 -491 -588 -20 -57 -37
-105 -39 -107 -1 -2 -31 19 -68 47 -170 129 -334 199 -660 281 l-231 58 -27
124 c-43 191 -75 268 -170 411 -41 61 -162 188 -214 225 -26 18 -34 19 -43 8
-8 -10 0 -27 37 -73 58 -72 141 -230 175 -333 24 -72 57 -238 57 -287 0 -20
-2 -22 -27 -12 -16 6 -64 29 -108 51 -255 129 -422 307 -555 590 -51 109 -70
133 -85 108 -6 -10 25 -141 57 -235 58 -170 197 -381 320 -484 183 -152 359
-234 705 -330 402 -112 557 -192 743 -388 173 -180 279 -415 319 -706 12 -83
13 -312 2 -361 -6 -28 -7 -27 -54 42 -27 39 -91 112 -143 161 -107 103 -217
172 -393 247 -140 59 -207 101 -301 190 -180 170 -270 373 -287 646 l-6 97
-91 31 c-50 16 -95 30 -100 30 -13 0 1 -273 19 -369 34 -176 111 -350 210
-474 30 -37 55 -69 55 -72 0 -9 -204 -5 -290 6 -130 16 -195 35 -318 95 -97
47 -124 66 -197 138 -101 100 -187 230 -252 378 -70 162 -96 140 -49 -44 114
-450 405 -713 849 -768 45 -5 165 -14 267 -19 276 -15 413 -55 582 -169 128
-86 250 -235 320 -390 70 -155 105 -393 94 -637 -26 -565 -83 -799 -242 -1006
-255 -332 -736 -312 -1238 50 -138 100 -395 358 -381 381 3 4 22 11 42 15 66
12 365 84 370 89 3 2 -23 22 -57 43 -142 87 -326 214 -442 303 -154 119 -393
351 -523 509 -61 74 -102 116 -106 108 -4 -7 -17 -75 -30 -152 -21 -122 -24
-172 -24 -385 1 -211 4 -263 23 -370 27 -148 51 -246 91 -366 32 -97 130 -314
141 -314 5 0 47 62 94 138 113 178 123 192 136 171 20 -35 126 -178 179 -244
155 -193 447 -444 674 -578 112 -67 327 -172 507 -247 532 -222 671 -304 914
-541 l140 -137 98 103 c239 250 381 336 983 590 326 138 565 274 775 441 175
139 417 405 525 576 17 27 35 47 40 45 6 -2 54 -73 108 -158 54 -85 102 -155
106 -157 9 -3 101 189 131 276 98 284 135 526 127 841 -5 195 -32 426 -55 468
-6 10 -24 -7 -69 -64 -33 -43 -91 -112 -130 -153 -38 -41 -82 -90 -98 -108
-43 -48 -234 -216 -344 -302 -101 -79 -320 -229 -429 -294 -35 -21 -62 -39
-60 -41 2 -1 91 -24 198 -50 107 -26 201 -49 208 -51 10 -3 10 -8 1 -26 -21
-40 -282 -293 -363 -353 -161 -119 -346 -212 -523 -262 -85 -24 -115 -28 -228
-27 -113 0 -141 4 -210 27 -283 93 -448 361 -500 811 -37 323 -39 636 -4 820
12 66 61 210 92 271 56 111 157 233 258 310 173 134 349 187 664 200 277 11
408 38 570 114 251 118 442 382 516 711 23 106 23 110 0 110 -13 0 -25 -16
-41 -58 -154 -388 -402 -604 -758 -657 -92 -14 -322 -21 -322 -10 0 3 25 36
55 72 99 120 178 302 211 483 18 102 31 360 18 360 -5 0 -51 -14 -101 -31
l-93 -31 0 -56 c-1 -122 -38 -300 -85 -406 -59 -134 -196 -292 -332 -382 -32
-21 -100 -57 -153 -79 -132 -58 -215 -101 -285 -148 -84 -56 -217 -188 -273
-270 l-47 -69 -8 58 c-5 33 -6 118 -3 189 18 482 218 840 591 1058 99 58 221
103 477 177 269 78 314 94 439 156 330 164 525 407 624 777 30 113 31 127 5
127 -11 0 -20 -5 -20 -11 0 -26 -95 -210 -154 -299 -119 -178 -279 -317 -473
-412 -57 -28 -106 -49 -108 -46 -10 9 17 176 41 263 34 120 108 273 177 364
42 57 54 78 45 88 -14 17 -51 -9 -149 -109 -149 -150 -238 -328 -283 -568 -9
-47 -20 -87 -24 -90 -4 -4 -68 -21 -142 -39 -401 -96 -571 -166 -749 -306 -31
-25 -60 -45 -64 -45 -3 0 -11 19 -17 43 -27 104 -95 244 -154 321 -15 18 -16
18 -48 -6 -18 -14 -55 -45 -82 -69 l-48 -44 42 -67 c49 -79 84 -175 100 -273
14 -89 8 -122 -40 -201 -50 -81 -100 -182 -131 -261 -13 -35 -27 -63 -30 -63
-3 0 -11 19 -18 42 -11 35 -54 122 -169 341 -24 47 -25 50 -13 134 7 48 26
122 42 164 63 163 158 274 394 459 261 204 374 330 456 505 112 239 102 589
-24 840 -46 92 -169 209 -284 268 -53 28 -94 43 -98 38z M1844 6765 c-12 -84
0 -195 29 -258 33 -73 115 -155 189 -190 88 -42 86 -43 103 70 21 137 -82 316
-221 386 -89 45 -92 44 -100 -8z M4092 6780 c-166 -78 -260 -249 -233 -421 6
-34 12 -64 15 -66 11 -11 69 11 123 46 123 80 175 172 181 323 4 96 -1 148
-16 148 -4 0 -35 -13 -70 -30z M1335 6402 c-78 -18 -215 -60 -215 -67 0 -18
54 -118 105 -195 173 -260 379 -367 651 -340 105 11 227 46 221 63 -5 17 -180
134 -279 188 -45 24 -123 61 -173 82 l-90 38 75 -5 c111 -7 238 -47 392 -124
l137 -69 -26 51 c-43 86 -98 159 -166 222 -76 71 -134 106 -237 141 -101 35
-277 41 -395 15z M4350 6404 c-112 -24 -224 -87 -311 -173 -70 -70 -147 -183
-164 -239 l-7 -23 39 24 c122 77 302 147 428 167 39 6 82 13 98 15 40 7 33
-10 -11 -23 -71 -22 -245 -113 -356 -187 -128 -86 -151 -103 -145 -109 14 -13
155 -48 229 -56 263 -30 476 81 645 335 53 80 105 176 105 194 0 13 -145 60
-238 76 -97 18 -228 17 -312 -1z M2829 6206 c-82 -33 -123 -61 -173 -117 -63
-70 -88 -141 -84 -243 l3 -81 32 1 c85 4 216 102 262 196 11 24 25 73 30 109
9 64 4 159 -8 159 -3 0 -31 -11 -62 -24z M3120 6147 c0 -101 17 -161 64 -233
41 -62 114 -114 199 -143 71 -25 71 -25 65 102 -3 78 -8 100 -33 145 -16 30
-47 72 -69 94 -40 39 -145 99 -198 112 l-28 6 0 -83z M1916 5704 c-3 -8 -9
-56 -12 -107 -20 -284 98 -476 354 -576 61 -24 62 -23 28 75 -32 95 -76 190
-119 257 -20 31 -33 57 -28 57 16 0 113 -106 154 -167 21 -32 54 -92 74 -133
36 -74 37 -74 46 -45 17 58 11 215 -11 282 -54 168 -200 294 -409 351 -61 17
-72 18 -77 6z M4020 5696 c-270 -80 -421 -260 -419 -500 0 -44 4 -99 8 -121
l7 -40 43 85 c58 113 107 183 175 250 60 58 71 57 31 -3 -55 -80 -155 -310
-155 -356 0 -13 65 10 143 51 190 101 282 291 262 538 -11 127 -6 122 -95 96z
M444 5319 c-116 -19 -354 -113 -354 -139 0 -21 130 -169 208 -236 83 -71 188
-131 267 -153 74 -21 205 -24 282 -8 81 18 235 77 240 93 4 13 -140 85 -252
126 -44 17 -129 43 -189 58 -59 16 -111 32 -114 35 -3 3 43 5 102 5 125 0 261
-25 391 -71 48 -17 89 -28 91 -26 10 9 -89 129 -145 175 -147 123 -336 173
-527 141z M5343 5320 c-141 -26 -283 -112 -380 -233 -35 -43 -63 -81 -63 -86
0 -5 28 2 61 16 125 50 245 75 394 80 77 3 137 3 134 -1 -3 -3 -49 -18 -103
-31 -53 -14 -129 -37 -169 -51 -87 -31 -287 -124 -287 -134 0 -10 125 -65 188
-84 82 -24 189 -30 273 -16 135 22 245 81 365 193 70 64 174 188 174 205 0 18
-176 99 -265 122 -91 24 -245 34 -322 20z M948 4593 c-25 -6 -23 -21 17 -101
46 -91 101 -146 183 -185 59 -28 77 -32 152 -32 47 0 97 4 112 8 l28 7 -20 52
c-45 118 -139 212 -245 243 -45 14 -187 19 -227 8z M4840 4585 c-60 -19 -146
-80 -182 -130 -15 -23 -39 -68 -53 -100 l-24 -60 22 -9 c12 -5 63 -9 112 -10
82 -1 96 2 159 32 88 41 133 89 186 194 37 75 39 83 23 89 -31 13 -196 8 -243
-6z M2081 4553 c-76 -287 6 -501 241 -633 l41 -23 -7 44 c-9 62 -63 233 -92
293 -62 128 34 6 104 -134 27 -52 55 -116 62 -142 8 -27 18 -48 22 -48 3 0 14
34 24 76 45 204 -24 390 -189 508 -63 45 -161 96 -184 96 -7 0 -17 -17 -22
-37z M3850 4563 c-156 -71 -268 -194 -306 -338 -23 -83 -15 -208 16 -290 l12
-30 27 75 c16 41 40 100 56 130 30 61 106 172 112 166 2 -2 -9 -37 -25 -77
-31 -77 -65 -196 -77 -262 l-6 -39 52 29 c71 38 170 137 203 200 52 104 68
217 46 333 -17 91 -30 130 -43 129 -7 0 -37 -12 -67 -26z M82 4415 c-41 -7
-76 -16 -79 -19 -3 -3 15 -48 39 -99 115 -238 312 -351 552 -317 47 7 86 15
86 19 -1 7 -157 126 -204 155 -17 11 -62 36 -101 57 -79 44 -78 46 20 20 74
-19 184 -68 274 -122 53 -32 53 -32 46 -8 -30 98 -141 225 -238 272 -113 55
-247 69 -395 42z M5657 4415 c-92 -23 -163 -64 -231 -132 -58 -59 -137 -185
-124 -198 3 -3 47 19 99 49 88 51 196 94 279 111 45 9 42 7 -60 -50 -87 -48
-270 -181 -270 -196 0 -13 89 -24 180 -22 94 1 175 26 246 74 69 47 157 150
196 230 57 118 58 115 -4 129 -84 19 -244 22 -311 5z M596 3864 c-166 -33
-321 -143 -429 -307 -49 -74 -99 -177 -94 -192 7 -17 154 -52 273 -66 224 -25
410 42 553 197 54 59 139 199 128 210 -3 3 -63 -7 -133 -21 -121 -24 -297 -78
-389 -119 l-40 -18 25 27 c68 73 340 208 464 230 21 3 35 10 30 14 -26 24
-204 62 -284 60 -19 -1 -66 -7 -104 -15z M5235 3870 c-72 -8 -192 -37 -200
-50 -2 -3 19 -12 48 -20 72 -18 241 -85 307 -122 102 -57 222 -160 133 -115
-76 39 -233 88 -372 117 -84 17 -155 29 -158 27 -8 -8 43 -100 91 -164 83
-110 209 -196 336 -229 122 -32 308 -20 487 31 l53 15 -26 58 c-34 79 -107
186 -172 254 -145 152 -323 219 -527 198z M1320 3651 c-152 -49 -236 -136
-275 -288 -17 -63 -20 -153 -6 -153 17 0 146 42 175 57 44 23 124 102 153 150
32 55 53 134 53 201 0 47 -2 52 -22 51 -13 0 -48 -8 -78 -18z M4600 3628 c0
-53 25 -158 46 -199 49 -96 186 -192 307 -214 l37 -7 0 53 c-1 193 -128 356
-311 398 -75 18 -79 16 -79 -31z M1853 3610 c-160 -57 -285 -162 -345 -290
-20 -41 -42 -100 -49 -130 -14 -62 -15 -241 -2 -310 11 -54 15 -54 145 -6 117
44 189 89 268 166 77 76 125 161 145 257 15 69 18 204 6 257 -6 29 -7 28 -114
-83 -59 -62 -134 -154 -167 -204 -33 -50 -60 -85 -60 -79 0 24 54 160 88 221
19 35 61 99 93 142 33 44 56 79 51 78 -4 0 -31 -9 -59 -19z M4132 3588 c47
-58 110 -154 137 -206 30 -59 82 -202 73 -201 -4 0 -32 39 -62 86 -57 89 -262
313 -275 301 -4 -4 -10 -47 -12 -95 -14 -255 100 -441 342 -558 118 -58 211
-89 220 -75 3 5 11 55 17 112 23 207 -38 396 -167 516 -78 73 -129 104 -225
137 -41 14 -76 25 -78 25 -2 0 11 -19 30 -42z"/>
</g>
</svg>
